<?xml version="1.0" encoding="utf-8"?>
<!-- Designed by Vexels.com - 2019 All Rights Reserved - https://vexels.com/terms-and-conditions/  -->
<svg version="1.1" id="Layer_1" xmlns="http://www.w3.org/2000/svg" xmlns:xlink="http://www.w3.org/1999/xlink" x="0px" y="0px"
	 viewBox="0 0 1200 1200" enable-background="new 0 0 1200 1200" xml:space="preserve">
<g>
	<path fill="#78403A" d="M1142.276,153.712c-4.429-13.251-11.003-25.626-20.321-36.278c-14.153-16.179-32.427-28.304-51.638-37.952
		c-56.97-28.609-125.757-24.268-180.64,7.11c-49.841,28.495-87.014,76.041-110.266,128.533c-3.832,8.65-7.25,18.97-2.549,27.185
		c8.304,14.499,33.251,10.838,44.767,2.757c10.332-7.25,14.254-30.014,21.93-40.034c32.826-42.847,84.391-76.553,140.834-82.827
		c52.768-5.866,98.124,33.004,108.594,83.615c12.128,58.618-28.296,84.896-70.744,105.109
		c-42.448,20.213-173.832,14.148-173.832,14.148s-62.661,103.088-78.831,113.192c-153.619-44.468-268.833,2.022-299.151,0
		C444.152,367.528,242.023,80.503,225.854,68.375s-56.596-16.17-76.809,40.426S50,852.637,50,852.637l56.596,4.043V711.148
		l34.361,10.105v149.575l34.363,12.13V729.34l42.446,8.085v159.682c0,0,36.364,0,36.383,0c-3.872,0-24.088-676.364-26.275-737.772
		c66.034,105.115,132.069,210.23,198.103,315.344c-2.571-4.093-90.231,88.889-96.714,99.035
		c-20.525,32.122-30.976,71.576-35.436,109.047c-9.577,80.45,6.627,168.209,47.243,238.607
		c25.069,43.449,70.669,70.701,112.478,95.823c15.622,9.387,16.107,19.546,20.905,37.586
		c-59.959,3.364-119.919,6.729-179.878,10.093c0,24.93,0,49.861,0,74.791c0-0.001,506.817-0.001,559.449-0.001
		c31.818,0,63.636,0,95.453,0c0,0,11.836-78.831,11.836-78.831c-62.59-4.716-125.18-9.432-187.769-14.147
		c-0.082-21.553,1.713-21.023,20.777-30.373c36.743-18.021,67.657-38.463,93.017-71.182c32.594-42.068,49.547-94.792,58.643-146.629
		c13.182-75.122,2.935-141.785-24.804-212.673c-18.191-46.488-90.957-117.234-90.957-117.234l70.744-95.907
		c52.088-1.103,108.157,4.35,158.083-13.256c54.375-19.175,83.474-72.651,89.522-128.014
		C1151.334,206.113,1150.525,178.392,1142.276,153.712z M712.312,543.379l-90.285,128.015c0,0-84.556-125.906-80.853-128.015
		C628.765,493.521,712.312,543.379,712.312,543.379z M477.84,573.027l113.192,157.66L477.84,911.255
		C477.84,911.255,299.967,742.815,477.84,573.027z M520.961,944.943c0,0,99.717-140.143,105.724-144.185
		c0,0,85.627,130.709,85.627,144.185C611.246,992.107,520.961,944.943,520.961,944.943z M771.602,905.866
		c-9.432-9.432-111.843-169.789-111.843-169.789c6.736-4.043,105.106-163.051,105.106-163.051S937.347,713.17,771.602,905.866z"/>
</g>
</svg>
